<svg xmlns="http://www.w3.org/2000/svg" viewBox="0 0 1134.57 311.27"><defs><style>.cls-1{stroke:#000;stroke-linecap:round;stroke-linejoin:round;stroke-width:0.71px;}</style></defs><title>Asset 7</title><g id="Layer_2" data-name="Layer 2"><g id="_0" data-name="0"><g id="LWPOLYLINE"><rect class="cls-1" x="721.44" y="83.17" width="41.41" height="144.93"/></g><g id="LWPOLYLINE-2" data-name="LWPOLYLINE"><rect class="cls-1" x="804.26" y="83.17" width="41.41" height="144.93"/></g><g id="LWPOLYLINE-3" data-name="LWPOLYLINE"><polygon class="cls-1" points="410.88 41.76 466.2 97.08 436.92 126.36 352.32 41.76 410.88 41.76"/></g><g id="LINE"><polygon class="cls-1" points="968.35 98.57 1134.21 0.35 1052.94 0.35 887.08 98.57 1056.28 198.76 949.55 269.51 638.63 269.51 524.76 155.63 638.63 41.76 887.08 41.76 887.08 0.35 621.48 0.35 352.32 269.51 310.92 269.51 310.92 0.35 0.35 310.92 58.91 310.92 141.73 228.1 228.1 228.1 228.1 186.69 183.14 186.69 269.51 100.32 269.51 310.92 369.48 310.92 495.48 184.91 621.48 310.92 962.03 310.92 1134.21 196.79 968.35 98.57"/></g></g></g></svg>